<svg width="233" height="69" viewBox="0 0 233 69" fill="none" xmlns="http://www.w3.org/2000/svg">
<g clip-path="url(#clip0_363_349)">
<path d="M47.4994 50.545C47.4994 54.3231 46.3649 57.6786 44.1451 60.5122C41.9747 63.2712 39.1507 65.4088 35.7471 66.8504C32.3928 68.2672 28.8658 68.9881 25.2526 68.9881C20.6157 68.9881 16.1516 67.9565 11.971 65.9184C7.8275 63.8926 4.12791 61.1584 0.9586 57.7656L-0.015625 56.7341L5.71874 50.9551L6.74229 52.086C9.295 54.9072 12.193 57.1815 15.3377 58.8593C18.4207 60.4998 21.7133 61.3324 25.1416 61.3324C27.5093 61.3324 29.877 60.885 32.1585 60.0151C34.3782 59.17 36.191 57.9023 37.5475 56.2494C38.867 54.6586 39.5083 52.8193 39.5083 50.632C39.4466 47.7363 38.4231 45.2382 36.339 43.0012C34.2549 40.7642 30.136 39.0118 24.1057 37.8188C16.2749 36.2404 10.8242 33.9785 7.44521 30.9088C3.99226 27.777 2.22879 23.7006 2.22879 18.8288C2.22879 16.1195 3.03037 13.3481 4.62119 10.5891C6.21201 7.8301 8.60441 5.50607 11.7614 3.67916C14.9307 1.86468 18.8029 0.945013 23.2794 0.945013C27.4353 0.945013 31.4432 1.98896 35.1674 4.052C38.8547 6.09019 42.0733 8.84919 44.737 12.2669L45.5386 13.2984L39.9769 18.9034L38.9657 17.5612C36.9063 14.827 34.4892 12.6024 31.7885 10.9371C29.1618 9.32145 26.3254 8.51364 23.3658 8.51364C20.4061 8.51364 18.0137 9.03561 16.0159 10.0547C14.0428 11.0614 12.526 12.3663 11.5271 13.9322C10.5159 15.4981 10.0349 17.1014 10.0349 18.8413C10.0349 21.1529 10.9721 23.2035 12.9206 25.105C14.9184 27.0686 19.1729 28.7339 25.5362 30.0513C32.5037 31.4805 37.9298 33.9288 41.6664 37.3341C45.5263 40.8512 47.4871 45.3004 47.4871 50.545H47.4994ZM64.7888 21.5133V8.48878H57.0073V21.5133H46.2415V29.3553H57.0073V59.6919C57.0073 62.0035 57.9076 64.0044 59.6834 65.6325C61.4222 67.2357 63.5556 68.0435 66.0467 68.0435H81.9302V60.2015H66.0467C65.652 60.2015 65.3561 60.0896 65.0848 59.8535C64.8628 59.6547 64.7888 59.4807 64.7888 59.2073V29.3677H90.5256V68.056H98.3071V21.5133H64.7765H64.7888ZM94.4102 4.43727C92.9673 4.43727 91.6725 4.97167 90.5873 6.02805C89.4774 7.09685 88.9225 8.42664 88.9225 9.96771C88.9225 11.5088 89.4774 12.7391 90.5626 13.8328C91.6478 14.9389 92.9427 15.4857 94.3979 15.4857C95.853 15.4857 97.1479 14.9265 98.2331 13.8328C99.3183 12.7267 99.8732 11.4342 99.8732 9.96771C99.8732 8.42664 99.3183 7.09685 98.2084 6.02805C97.1232 4.97167 95.8284 4.43727 94.3855 4.43727H94.4102ZM230.53 30.8964C228.878 27.7148 226.547 25.1671 223.587 23.3402C220.615 21.5008 217.212 20.5812 213.463 20.5812C209.714 20.5812 206.199 21.65 203.092 23.7627C201.538 24.8191 200.157 26.0371 198.997 27.3668V0.000488281H191.216V40.4908L177.811 55.0936C176.06 56.9205 174.223 58.387 172.348 59.4558C170.141 60.711 167.588 61.3449 164.727 61.3449C161.866 61.3449 159.387 60.5992 157.081 59.1203C154.738 57.6289 152.839 55.5783 151.445 53.043C150.04 50.5077 149.337 47.7363 149.337 44.7908C149.337 41.8454 150.04 38.9994 151.445 36.5014C152.851 33.9909 154.75 31.9652 157.094 30.4614C159.4 28.9825 161.977 28.2368 164.739 28.2368C167.65 28.2368 170.239 28.8582 172.41 30.0761C174.654 31.3438 176.837 33.1831 178.909 35.5693L179.92 36.7375L185.568 31.1947L184.655 30.1507C179.143 23.8124 172.447 20.5936 164.739 20.5936C160.559 20.5936 156.625 21.6997 153.073 23.8746C149.534 26.0371 146.698 28.9949 144.651 32.6612C143.738 34.3016 143.035 36.0291 142.517 37.8188L122.083 59.9281V29.3677H139.225V21.5257H122.083V8.48878H114.302V21.5133H103.536V29.3553H114.302V60.3382C114.302 63.5198 116.201 66.316 119.136 67.4843C120.036 67.8447 120.986 68.0187 121.935 68.0187C124.032 68.0187 126.054 67.1239 127.497 65.5704L142.061 49.8117C142.554 52.2849 143.417 54.6462 144.651 56.8708C146.698 60.5743 149.534 63.5446 153.073 65.7195C156.625 67.8944 160.546 69.0005 164.739 69.0005C171.275 69.0005 177.133 66.6143 182.177 61.9166L183.373 60.7483C183.854 60.2512 184.273 59.7914 184.631 59.3812L191.228 52.2352V68.0684H199.01V41.9697C199.01 39.3598 199.651 37.0109 200.897 34.9603C202.167 32.8973 203.881 31.2444 206.027 30.0513C208.172 28.8582 210.516 28.2492 212.994 28.2492C216.595 28.2492 219.456 29.4796 221.75 32.0149C224.044 34.5502 225.215 37.9057 225.215 41.9697V68.0684H232.997V41.4974C232.997 37.6323 232.17 34.0655 230.543 30.9088L230.53 30.8964Z" fill="#11162A"/>
</g>
<defs>
<clipPath id="clip0_363_349">
<rect width="233" height="69" fill="white" transform="translate(0 0.000488281)"/>
</clipPath>
</defs>
</svg>
